<svg width="586" height="586" viewBox="0 0 586 586" fill="none" xmlns="http://www.w3.org/2000/svg">
<path d="M255.804 514.28C256.74 514.28 257.574 514.484 258.306 514.892C259.05 515.3 259.632 515.876 260.052 516.62C260.472 517.364 260.682 518.222 260.682 519.194C260.682 520.166 260.472 521.03 260.052 521.786C259.632 522.53 259.05 523.106 258.306 523.514C257.574 523.922 256.74 524.126 255.804 524.126C255.144 524.126 254.538 524.012 253.986 523.784C253.446 523.556 252.99 523.214 252.618 522.758V524H250.476V510.644H252.726V515.558C253.11 515.138 253.56 514.82 254.076 514.604C254.604 514.388 255.18 514.28 255.804 514.28ZM255.552 522.2C256.38 522.2 257.058 521.924 257.586 521.372C258.126 520.82 258.396 520.094 258.396 519.194C258.396 518.294 258.126 517.568 257.586 517.016C257.058 516.464 256.38 516.188 255.552 516.188C255.012 516.188 254.526 516.314 254.094 516.566C253.662 516.806 253.32 517.154 253.068 517.61C252.816 518.066 252.69 518.594 252.69 519.194C252.69 519.794 252.816 520.322 253.068 520.778C253.32 521.234 253.662 521.588 254.094 521.84C254.526 522.08 255.012 522.2 255.552 522.2ZM271.552 514.388L267.052 524.774C266.632 525.818 266.122 526.55 265.522 526.97C264.922 527.402 264.196 527.618 263.344 527.618C262.864 527.618 262.39 527.54 261.922 527.384C261.454 527.228 261.07 527.012 260.77 526.736L261.67 525.08C261.886 525.284 262.138 525.446 262.426 525.566C262.726 525.686 263.026 525.746 263.326 525.746C263.722 525.746 264.046 525.644 264.298 525.44C264.562 525.236 264.802 524.894 265.018 524.414L265.18 524.036L260.986 514.388H263.326L266.35 521.498L269.392 514.388H271.552ZM286.321 521.084H280.021L278.779 524H276.367L282.037 511.4H284.341L290.029 524H287.581L286.321 521.084ZM285.547 519.248L283.171 513.74L280.813 519.248H285.547ZM299.923 514.388L295.801 524H293.479L289.357 514.388H291.697L294.685 521.516L297.763 514.388H299.923ZM305.386 524.126C304.414 524.126 303.538 523.916 302.758 523.496C301.978 523.076 301.366 522.494 300.922 521.75C300.49 520.994 300.274 520.142 300.274 519.194C300.274 518.246 300.49 517.4 300.922 516.656C301.366 515.912 301.978 515.33 302.758 514.91C303.538 514.49 304.414 514.28 305.386 514.28C306.37 514.28 307.252 514.49 308.032 514.91C308.812 515.33 309.418 515.912 309.85 516.656C310.294 517.4 310.516 518.246 310.516 519.194C310.516 520.142 310.294 520.994 309.85 521.75C309.418 522.494 308.812 523.076 308.032 523.496C307.252 523.916 306.37 524.126 305.386 524.126ZM305.386 522.2C306.214 522.2 306.898 521.924 307.438 521.372C307.978 520.82 308.248 520.094 308.248 519.194C308.248 518.294 307.978 517.568 307.438 517.016C306.898 516.464 306.214 516.188 305.386 516.188C304.558 516.188 303.874 516.464 303.334 517.016C302.806 517.568 302.542 518.294 302.542 519.194C302.542 520.094 302.806 520.82 303.334 521.372C303.874 521.924 304.558 522.2 305.386 522.2ZM322.207 514.388V522.542C322.207 525.926 320.479 527.618 317.023 527.618C316.099 527.618 315.223 527.498 314.395 527.258C313.567 527.03 312.883 526.694 312.343 526.25L313.351 524.558C313.771 524.906 314.299 525.182 314.935 525.386C315.583 525.602 316.237 525.71 316.897 525.71C317.953 525.71 318.727 525.47 319.219 524.99C319.711 524.51 319.957 523.778 319.957 522.794V522.29C319.573 522.71 319.105 523.028 318.553 523.244C318.001 523.46 317.395 523.568 316.735 523.568C315.823 523.568 314.995 523.376 314.251 522.992C313.519 522.596 312.937 522.044 312.505 521.336C312.085 520.628 311.875 519.818 311.875 518.906C311.875 517.994 312.085 517.19 312.505 516.494C312.937 515.786 313.519 515.24 314.251 514.856C314.995 514.472 315.823 514.28 316.735 514.28C317.431 514.28 318.061 514.394 318.625 514.622C319.201 514.85 319.681 515.198 320.065 515.666V514.388H322.207ZM317.077 521.66C317.929 521.66 318.625 521.408 319.165 520.904C319.717 520.388 319.993 519.722 319.993 518.906C319.993 518.102 319.717 517.448 319.165 516.944C318.625 516.44 317.929 516.188 317.077 516.188C316.213 516.188 315.505 516.44 314.953 516.944C314.413 517.448 314.143 518.102 314.143 518.906C314.143 519.722 314.413 520.388 314.953 520.904C315.505 521.408 316.213 521.66 317.077 521.66ZM334.705 514.388V522.542C334.705 525.926 332.977 527.618 329.521 527.618C328.597 527.618 327.721 527.498 326.893 527.258C326.065 527.03 325.381 526.694 324.841 526.25L325.849 524.558C326.269 524.906 326.797 525.182 327.433 525.386C328.081 525.602 328.735 525.71 329.395 525.71C330.451 525.71 331.225 525.47 331.717 524.99C332.209 524.51 332.455 523.778 332.455 522.794V522.29C332.071 522.71 331.603 523.028 331.051 523.244C330.499 523.46 329.893 523.568 329.233 523.568C328.321 523.568 327.493 523.376 326.749 522.992C326.017 522.596 325.435 522.044 325.003 521.336C324.583 520.628 324.373 519.818 324.373 518.906C324.373 517.994 324.583 517.19 325.003 516.494C325.435 515.786 326.017 515.24 326.749 514.856C327.493 514.472 328.321 514.28 329.233 514.28C329.929 514.28 330.559 514.394 331.123 514.622C331.699 514.85 332.179 515.198 332.563 515.666V514.388H334.705ZM329.575 521.66C330.427 521.66 331.123 521.408 331.663 520.904C332.215 520.388 332.491 519.722 332.491 518.906C332.491 518.102 332.215 517.448 331.663 516.944C331.123 516.44 330.427 516.188 329.575 516.188C328.711 516.188 328.003 516.44 327.451 516.944C326.911 517.448 326.641 518.102 326.641 518.906C326.641 519.722 326.911 520.388 327.451 520.904C328.003 521.408 328.711 521.66 329.575 521.66Z" fill="#97A6F0"/>
<path d="M159.224 464.896C155.597 464.896 152.077 464.448 148.664 463.552C145.251 462.656 142.477 461.461 140.344 459.968L144.504 450.624C146.509 451.947 148.835 453.013 151.48 453.824C154.125 454.635 156.728 455.04 159.288 455.04C164.152 455.04 166.584 453.824 166.584 451.392C166.584 450.112 165.88 449.173 164.472 448.576C163.107 447.936 160.888 447.275 157.816 446.592C154.445 445.867 151.629 445.099 149.368 444.288C147.107 443.435 145.165 442.091 143.544 440.256C141.923 438.421 141.112 435.947 141.112 432.832C141.112 430.101 141.859 427.648 143.352 425.472C144.845 423.253 147.064 421.504 150.008 420.224C152.995 418.944 156.643 418.304 160.952 418.304C163.896 418.304 166.797 418.645 169.656 419.328C172.515 419.968 175.032 420.928 177.208 422.208L173.304 431.616C169.037 429.312 164.899 428.16 160.888 428.16C158.371 428.16 156.536 428.544 155.384 429.312C154.232 430.037 153.656 430.997 153.656 432.192C153.656 433.387 154.339 434.283 155.704 434.88C157.069 435.477 159.267 436.096 162.296 436.736C165.709 437.461 168.525 438.251 170.744 439.104C173.005 439.915 174.947 441.237 176.568 443.072C178.232 444.864 179.064 447.317 179.064 450.432C179.064 453.12 178.317 455.552 176.824 457.728C175.331 459.904 173.091 461.653 170.104 462.976C167.117 464.256 163.491 464.896 159.224 464.896ZM201.75 464.576C198.038 464.576 194.688 463.808 191.702 462.272C188.715 460.736 186.368 458.603 184.661 455.872C182.998 453.141 182.166 450.048 182.166 446.592C182.166 443.179 182.998 440.107 184.661 437.376C186.368 434.645 188.694 432.533 191.638 431.04C194.624 429.504 197.995 428.736 201.75 428.736C205.504 428.736 208.875 429.504 211.862 431.04C214.848 432.533 217.174 434.645 218.838 437.376C220.502 440.064 221.334 443.136 221.334 446.592C221.334 450.048 220.502 453.141 218.838 455.872C217.174 458.603 214.848 460.736 211.862 462.272C208.875 463.808 205.504 464.576 201.75 464.576ZM201.75 454.912C203.883 454.912 205.632 454.187 206.998 452.736C208.363 451.243 209.046 449.195 209.046 446.592C209.046 444.032 208.363 442.027 206.998 440.576C205.632 439.125 203.883 438.4 201.75 438.4C199.616 438.4 197.867 439.125 196.502 440.576C195.136 442.027 194.454 444.032 194.454 446.592C194.454 449.195 195.136 451.243 196.502 452.736C197.867 454.187 199.616 454.912 201.75 454.912ZM240.215 430.592H248.471V439.68H240.535V464H228.375V439.68H223.319V430.592H228.375V429.696C228.375 425.472 229.633 422.123 232.151 419.648C234.711 417.173 238.273 415.936 242.839 415.936C244.375 415.936 245.868 416.085 247.319 416.384C248.769 416.683 249.964 417.131 250.903 417.728L247.895 426.304C246.7 425.621 245.484 425.28 244.247 425.28C242.967 425.28 241.964 425.664 241.239 426.432C240.556 427.2 240.215 428.331 240.215 429.824V430.592ZM276.903 462.592C275.879 463.232 274.62 463.723 273.127 464.064C271.676 464.405 270.119 464.576 268.455 464.576C263.932 464.576 260.455 463.467 258.023 461.248C255.591 459.029 254.375 455.723 254.375 451.328V439.68H249.319V430.592H254.375V421.568H266.535V430.592H274.471V439.68H266.535V451.2C266.535 452.437 266.855 453.419 267.495 454.144C268.177 454.827 269.073 455.168 270.183 455.168C271.591 455.168 272.828 454.805 273.895 454.08L276.903 462.592ZM338.439 429.312L326.087 464H314.311L307.783 445.12L300.999 464H289.223L276.87 429.312H288.391L295.495 450.304L302.855 429.312H313.222L320.391 450.496L327.751 429.312H338.439ZM355.751 428.736C361.511 428.736 365.905 430.059 368.935 432.704C371.964 435.307 373.479 439.317 373.479 444.736V464H362.151V459.52C360.401 462.891 356.988 464.576 351.911 464.576C349.223 464.576 346.897 464.107 344.935 463.168C342.972 462.229 341.479 460.971 340.455 459.392C339.473 457.771 338.983 455.936 338.983 453.888C338.983 450.603 340.241 448.064 342.759 446.272C345.276 444.437 349.159 443.52 354.407 443.52H361.319C361.105 439.851 358.652 438.016 353.958 438.016C352.295 438.016 350.609 438.293 348.903 438.848C347.196 439.36 345.745 440.085 344.551 441.024L340.455 432.768C342.375 431.488 344.7 430.507 347.431 429.824C350.204 429.099 352.977 428.736 355.751 428.736ZM355.303 456.896C356.711 456.896 357.948 456.555 359.015 455.872C360.081 455.189 360.849 454.187 361.319 452.864V449.856H356.071C352.529 449.856 350.759 451.029 350.759 453.376C350.759 454.443 351.164 455.296 351.975 455.936C352.785 456.576 353.895 456.896 355.303 456.896ZM392.738 433.472C393.975 431.893 395.575 430.72 397.538 429.952C399.543 429.141 401.826 428.736 404.386 428.736V439.68C403.277 439.552 402.359 439.488 401.634 439.488C399.031 439.488 396.983 440.192 395.49 441.6C394.039 443.008 393.314 445.163 393.314 448.064V464H381.154V429.312H392.738V433.472ZM444.548 446.72C444.548 446.805 444.484 447.808 444.356 449.728H419.14C419.652 451.52 420.633 452.907 422.083 453.888C423.577 454.827 425.433 455.296 427.652 455.296C429.316 455.296 430.745 455.061 431.94 454.592C433.177 454.123 434.414 453.355 435.652 452.288L442.052 458.944C438.681 462.699 433.753 464.576 427.268 464.576C423.214 464.576 419.652 463.808 416.58 462.272C413.508 460.736 411.118 458.603 409.411 455.872C407.748 453.141 406.916 450.048 406.916 446.592C406.916 443.179 407.726 440.128 409.348 437.44C411.012 434.709 413.294 432.576 416.196 431.04C419.097 429.504 422.361 428.736 425.988 428.736C429.444 428.736 432.58 429.461 435.396 430.912C438.212 432.32 440.43 434.389 442.052 437.12C443.716 439.808 444.548 443.008 444.548 446.72ZM426.052 437.376C424.174 437.376 422.596 437.909 421.316 438.976C420.078 440.043 419.289 441.493 418.948 443.328H433.156C432.814 441.493 432.004 440.043 430.724 438.976C429.486 437.909 427.929 437.376 426.052 437.376Z" fill="#97A6F0"/>
<g clip-path="url(#clip0_702_78)">
<path fill-rule="evenodd" clip-rule="evenodd" d="M312.634 124.324C303.9 109.225 282.067 109.225 273.332 124.324L167.074 308.027C158.34 323.126 169.257 342 186.724 342H192.062C200.168 342 207.659 337.683 211.712 330.676L287.889 198.98C290.153 195.065 295.814 195.065 298.078 198.98L374.254 330.676C378.307 337.683 385.798 342 393.905 342H399.242C416.709 342 427.626 323.126 418.892 308.027L312.634 124.324Z" fill="#97A6F0"/>
<path d="M288.924 261.892C290.541 259.096 294.585 259.096 296.202 261.892L317.672 299.01C319.289 301.806 317.268 305.301 314.033 305.301H271.093C267.858 305.301 265.837 301.806 267.454 299.01L288.924 261.892Z" fill="#97A6F0"/>
</g>
<defs>
<clipPath id="clip0_702_78">
<rect width="258" height="229" fill="white" transform="translate(164 113)"/>
</clipPath>
</defs>
</svg>
