<svg width="586" height="586" viewBox="0 0 586 586" fill="none" xmlns="http://www.w3.org/2000/svg">
<g clip-path="url(#clip0_705_6)">
<path fill-rule="evenodd" clip-rule="evenodd" d="M315.711 170.401C305.386 152.533 279.575 152.533 269.249 170.401L143.634 387.797C133.309 405.665 146.215 428 166.864 428H173.174C182.757 428 191.612 422.892 196.404 414.599L286.458 258.749C289.134 254.117 295.826 254.117 298.503 258.749L388.556 414.599C393.348 422.892 402.204 428 411.787 428H418.096C438.745 428 451.651 405.665 441.326 387.797L315.711 170.401Z" fill="#97A6F0"/>
<path d="M287.681 333.2C289.593 329.891 294.373 329.891 296.285 333.2L321.666 377.126C323.578 380.434 321.189 384.571 317.365 384.571H266.601C262.778 384.571 260.388 380.434 262.3 377.126L287.681 333.2Z" fill="#97A6F0"/>
</g>
<defs>
<clipPath id="clip0_705_6">
<rect width="305" height="271" fill="white" transform="translate(140 157)"/>
</clipPath>
</defs>
</svg>
